<?xml version="1.0" encoding="UTF-8" standalone="no"?>
<!--?xml version="1.0" encoding="utf-8"?-->

<!-- Generator: Adobe Illustrator 18.1.1, SVG Export Plug-In . SVG Version: 6.00 Build 0)  -->

<svg
   xmlns:dc="http://purl.org/dc/elements/1.1/"
   xmlns:cc="http://creativecommons.org/ns#"
   xmlns:rdf="http://www.w3.org/1999/02/22-rdf-syntax-ns#"
   xmlns:svg="http://www.w3.org/2000/svg"
   xmlns="http://www.w3.org/2000/svg"
   xmlns:xlink="http://www.w3.org/1999/xlink"
   xmlns:sodipodi="http://sodipodi.sourceforge.net/DTD/sodipodi-0.dtd"
   xmlns:inkscape="http://www.inkscape.org/namespaces/inkscape"
   version="1.1"
   id="_x31_0"
   x="0px"
   y="0px"
   viewBox="0 0 80 80"
   xml:space="preserve"
   sodipodi:docname="logo9.svg"
   inkscape:version="0.92.4 (5da689c313, 2019-01-14)"
   width="80"
   height="80"
   inkscape:export-filename="/home/fcollin/Documents/praca/latarnia/shared/picture/logo/Lighthouse_icon_circle.png"
   inkscape:export-xdpi="300"
   inkscape:export-ydpi="300"><metadata
   id="metadata31"><rdf:RDF><cc:Work
       rdf:about=""><dc:format>image/svg+xml</dc:format><dc:type
         rdf:resource="http://purl.org/dc/dcmitype/StillImage" /><dc:title /></cc:Work></rdf:RDF></metadata><defs
   id="defs29"><linearGradient
     gradientTransform="matrix(1.6189094,0,0,1.5512641,-118.84653,-368.62986)"
     gradientUnits="userSpaceOnUse"
     y2="265.0954"
     x2="40.787682"
     y1="226.39351"
     x1="-12.453856"
     id="linearGradient4577"
     xlink:href="#linearGradient4575" /><linearGradient
     id="linearGradient4575"><stop
       style="stop-color:#1abc9c;stop-opacity:1"
       offset="0"
       id="stop4573" /><stop
       style="stop-color:#2c3e50;stop-opacity:1;"
       offset="1"
       id="stop4571" /></linearGradient></defs><sodipodi:namedview
   pagecolor="#ffffff"
   bordercolor="#666666"
   borderopacity="1"
   objecttolerance="10"
   gridtolerance="10"
   guidetolerance="10"
   inkscape:pageopacity="0"
   inkscape:pageshadow="2"
   inkscape:window-width="1916"
   inkscape:window-height="1036"
   id="namedview27"
   showgrid="false"
   inkscape:zoom="13.520192"
   inkscape:cx="46.638075"
   inkscape:cy="35.983998"
   inkscape:window-x="1366"
   inkscape:window-y="20"
   inkscape:window-maximized="1"
   inkscape:current-layer="_x31_0"
   fit-margin-top="0"
   fit-margin-left="0"
   fit-margin-right="0"
   fit-margin-bottom="0"
   inkscape:pagecheckerboard="true" /><style
   type="text/css"
   id="style2">
	.st0{fill:#374149;}
</style><circle
   style="opacity:1;fill:none;fill-opacity:1;stroke:#f0efe6;stroke-width:3.12687635;stroke-miterlimit:4;stroke-dasharray:none;stroke-dashoffset:0;stroke-opacity:1"
   id="path156"
   cx="-40"
   cy="40"
   transform="scale(-1,1)"
   r="38.436562" /><g
   style="fill:#f0efe6;fill-opacity:1;stroke:#f0efe6;stroke-opacity:1"
   id="g24"
   transform="matrix(-0.1171875,0,0,0.11365825,69.852073,14.216248)"><path
     inkscape:connector-curvature="0"
     style="fill:#f0efe6;fill-opacity:1;stroke:#f0efe6;stroke-opacity:1"
     id="path4"
     d="m 149.195,155.775 v -0.168 l -135.714,49.423 -0.965,0.351 h 0.003 l -0.152,0.054 c 4.145,11.254 9.254,22.141 15.176,32.43 l 121.652,-70.266 v -8.855 l 0.055,-2.988 z"
     class="st0" /><path
     inkscape:connector-curvature="0"
     style="fill:#f0efe6;fill-opacity:1;stroke:#f0efe6;stroke-opacity:1"
     id="path6"
     d="M 149.195,102.592 V 87.858 L 48.129,3.08 c -7.461,8.824 -14.117,18.363 -19.98,28.375 -0.168,0.274 -0.364,0.531 -0.524,0.805 l 0.004,0.003 c -0.027,0.047 -0.058,0.09 -0.086,0.137 z"
     class="st0" /><path
     inkscape:connector-curvature="0"
     style="fill:#f0efe6;fill-opacity:1;stroke:#f0efe6;stroke-opacity:1"
     id="path8"
     d="m 149.195,135.096 v -9.922 L 3.183,99.408 C 1.176,110.666 0.121,122.213 0.05,133.963 0.047,134.283 0.004,134.615 0,134.935 H 0.008 C 0.008,134.99 0,135.041 0,135.096 Z"
     class="st0" /><path
     inkscape:connector-curvature="0"
     style="fill:#f0efe6;fill-opacity:1;stroke:#f0efe6;stroke-opacity:1"
     id="path10"
     d="m 397.844,168.358 -34.879,-12.75 v 0.055 l -0.16,-0.055 V 167.6 l 121.652,70.266 c 5.809,-9.972 10.746,-20.519 14.825,-31.406 0.113,-0.294 0.258,-0.578 0.374,-0.875 h -0.007 c 0.015,-0.051 0.042,-0.098 0.058,-0.149 z"
     class="st0" /><path
     inkscape:connector-curvature="0"
     style="fill:#f0efe6;fill-opacity:1;stroke:#f0efe6;stroke-opacity:1"
     id="path12"
     d="m 464.594,3.924 c -0.187,-0.23 -0.359,-0.496 -0.546,-0.723 l -0.004,0.004 C 464.009,3.166 463.982,3.119 463.946,3.08 L 362.805,87.931 v 14.661 L 484.457,32.4 C 478.637,22.342 472.016,12.802 464.594,3.924 Z"
     class="st0" /><path
     inkscape:connector-curvature="0"
     style="fill:#f0efe6;fill-opacity:1;stroke:#f0efe6;stroke-opacity:1"
     id="path14"
     d="m 362.805,134.935 v 0.161 H 512 c 0,-11.864 -1.09,-23.508 -3.004,-34.883 -0.035,-0.215 -0.046,-0.434 -0.082,-0.649 l -0.004,0.004 c -0.008,-0.054 -0.012,-0.109 -0.02,-0.16 l -146.086,25.766 v 9.73 0.031 z"
     class="st0" /><polygon
     style="fill:#f0efe6;fill-opacity:1;stroke:#f0efe6;stroke-opacity:1"
     id="polygon16"
     points="310.242,227.342 198.676,227.342 194.981,295.478 194.75,299.557 194.758,299.557 194.75,299.717 314.168,299.717 "
     class="st0" /><path
     inkscape:connector-curvature="0"
     style="fill:#f0efe6;fill-opacity:1;stroke:#f0efe6;stroke-opacity:1"
     id="path18"
     d="m 208.61,214.49 h 91.71 c 14.207,0 25.727,-11.516 25.727,-25.723 v -20.218 c 0,-1.234 -1.004,-2.234 -2.238,-2.234 H 185.121 c -1.234,0 -2.234,1 -2.234,2.234 v 20.218 c -0.001,14.207 11.515,25.723 25.723,25.723 z"
     class="st0" /><polygon
     style="fill:#f0efe6;fill-opacity:1;stroke:#f0efe6;stroke-opacity:1"
     id="polygon20"
     points="303.258,89.506 308.469,89.63 308.324,89.506 308.57,89.506 260.738,48.721 260.738,24.314 260.742,24.24 260.738,24.24 260.738,24.08 248.39,24.08 248.351,24.076 248.351,24.08 248.191,24.08 248.191,48.721 221.047,71.865 200.359,89.346 200.543,89.35 200.359,89.506 212.535,89.506 212.535,152.709 212.531,153.099 212.535,153.099 212.535,153.256 236.023,153.256 236.023,104.607 272.93,104.607 272.93,153.256 296.418,153.256 296.418,89.506 "
     class="st0" /><path
     inkscape:connector-curvature="0"
     style="fill:#f0efe6;fill-opacity:1;stroke:#f0efe6;stroke-opacity:1"
     id="path22"
     d="M 336.683,477.045 H 323.828 L 315.274,319.85 H 193.645 l -8.524,157.195 h -12.874 c -6.418,0 -11.626,5.203 -11.626,11.625 v 20.027 l -0.004,0.063 h 0.004 v 0.16 h 187.692 v -20.25 c 0,-6.422 -5.207,-11.625 -11.63,-11.625 z m -105.257,-0.403 v -50.363 c 0,-12.683 10.367,-23.05 23.051,-23.05 12.683,0 23.05,10.367 23.05,23.05 v 50.363 h -45.98 z"
     class="st0" /></g><text
   xml:space="preserve"
   style="font-style:normal;font-weight:normal;font-size:3.80798459px;line-height:1.25;font-family:sans-serif;letter-spacing:0px;word-spacing:0px;fill:#f0efe6;fill-opacity:1;stroke:#f0efe6;stroke-width:0.21969146;stroke-opacity:1"
   x="47.596752"
   y="50.212669"
   id="text830-3"
   transform="scale(1.0029751,0.99703371)"><tspan
     sodipodi:role="line"
     id="tspan828-6"
     x="47.596752"
     y="50.212669"
     style="font-style:normal;font-variant:normal;font-weight:bold;font-stretch:normal;font-size:9.51209736px;line-height:39.25;font-family:'Linux Libertine O';-inkscape-font-specification:'Linux Libertine O Bold';fill:#f0efe6;fill-opacity:1;stroke:#f0efe6;stroke-width:0.21969146;stroke-opacity:1">Collin</tspan></text>




</svg>