<?xml version="1.0" encoding="UTF-8"?>
<svg xmlns="http://www.w3.org/2000/svg" xmlns:xlink="http://www.w3.org/1999/xlink" width="504pt" height="72pt" viewBox="0 0 504 72" version="1.1">
<g id="surface10">
<rect x="0" y="0" width="504" height="72" style="fill:rgb(100%,100%,100%);fill-opacity:1;stroke:none;"/>
<path style="fill-rule:nonzero;fill:rgb(0%,0%,1.568627%);fill-opacity:1;stroke-width:0.75;stroke-linecap:round;stroke-linejoin:round;stroke:rgb(0%,0%,1.568627%);stroke-opacity:1;stroke-miterlimit:10;" d="M 12.601562 70.199219 L 60.480469 70.199219 L 60.480469 1.800781 L 12.601562 1.800781 Z M 12.601562 70.199219 "/>
<path style="fill-rule:nonzero;fill:rgb(10.588235%,4.705882%,25.882353%);fill-opacity:1;stroke-width:0.75;stroke-linecap:round;stroke-linejoin:round;stroke:rgb(10.588235%,4.705882%,25.882353%);stroke-opacity:1;stroke-miterlimit:10;" d="M 60.480469 70.199219 L 108.359375 70.199219 L 108.359375 1.800781 L 60.480469 1.800781 Z M 60.480469 70.199219 "/>
<path style="fill-rule:nonzero;fill:rgb(29.411765%,4.705882%,41.960784%);fill-opacity:1;stroke-width:0.75;stroke-linecap:round;stroke-linejoin:round;stroke:rgb(29.411765%,4.705882%,41.960784%);stroke-opacity:1;stroke-miterlimit:10;" d="M 108.359375 70.199219 L 156.238281 70.199219 L 156.238281 1.800781 L 108.359375 1.800781 Z M 108.359375 70.199219 "/>
<path style="fill-rule:nonzero;fill:rgb(47.058824%,10.980392%,42.745098%);fill-opacity:1;stroke-width:0.75;stroke-linecap:round;stroke-linejoin:round;stroke:rgb(47.058824%,10.980392%,42.745098%);stroke-opacity:1;stroke-miterlimit:10;" d="M 156.238281 70.199219 L 204.117188 70.199219 L 204.117188 1.800781 L 156.238281 1.800781 Z M 156.238281 70.199219 "/>
<path style="fill-rule:nonzero;fill:rgb(64.705882%,17.254902%,37.647059%);fill-opacity:1;stroke-width:0.75;stroke-linecap:round;stroke-linejoin:round;stroke:rgb(64.705882%,17.254902%,37.647059%);stroke-opacity:1;stroke-miterlimit:10;" d="M 204.121094 70.199219 L 252 70.199219 L 252 1.800781 L 204.121094 1.800781 Z M 204.121094 70.199219 "/>
<path style="fill-rule:nonzero;fill:rgb(81.176471%,26.666667%,27.45098%);fill-opacity:1;stroke-width:0.75;stroke-linecap:round;stroke-linejoin:round;stroke:rgb(81.176471%,26.666667%,27.45098%);stroke-opacity:1;stroke-miterlimit:10;" d="M 252 70.199219 L 299.878906 70.199219 L 299.878906 1.800781 L 252 1.800781 Z M 252 70.199219 "/>
<path style="fill-rule:nonzero;fill:rgb(92.941176%,41.176471%,14.509804%);fill-opacity:1;stroke-width:0.75;stroke-linecap:round;stroke-linejoin:round;stroke:rgb(92.941176%,41.176471%,14.509804%);stroke-opacity:1;stroke-miterlimit:10;" d="M 299.878906 70.199219 L 347.757812 70.199219 L 347.757812 1.800781 L 299.878906 1.800781 Z M 299.878906 70.199219 "/>
<path style="fill-rule:nonzero;fill:rgb(98.431373%,60.392157%,2.352941%);fill-opacity:1;stroke-width:0.75;stroke-linecap:round;stroke-linejoin:round;stroke:rgb(98.431373%,60.392157%,2.352941%);stroke-opacity:1;stroke-miterlimit:10;" d="M 347.761719 70.199219 L 395.640625 70.199219 L 395.640625 1.800781 L 347.761719 1.800781 Z M 347.761719 70.199219 "/>
<path style="fill-rule:nonzero;fill:rgb(96.862745%,81.568627%,23.529412%);fill-opacity:1;stroke-width:0.75;stroke-linecap:round;stroke-linejoin:round;stroke:rgb(96.862745%,81.568627%,23.529412%);stroke-opacity:1;stroke-miterlimit:10;" d="M 395.640625 70.199219 L 443.519531 70.199219 L 443.519531 1.800781 L 395.640625 1.800781 Z M 395.640625 70.199219 "/>
<path style="fill-rule:nonzero;fill:rgb(98.823529%,100%,64.313725%);fill-opacity:1;stroke-width:0.75;stroke-linecap:round;stroke-linejoin:round;stroke:rgb(98.823529%,100%,64.313725%);stroke-opacity:1;stroke-miterlimit:10;" d="M 443.519531 70.199219 L 491.398438 70.199219 L 491.398438 1.800781 L 443.519531 1.800781 Z M 443.519531 70.199219 "/>
</g>
</svg>
