<?xml version="1.0" encoding="UTF-8"?>
<svg xmlns="http://www.w3.org/2000/svg" xmlns:xlink="http://www.w3.org/1999/xlink" width="504pt" height="72pt" viewBox="0 0 504 72" version="1.1">
<g id="surface22">
<rect x="0" y="0" width="504" height="72" style="fill:rgb(100%,100%,100%);fill-opacity:1;stroke:none;"/>
<path style="fill-rule:nonzero;fill:rgb(26.666667%,0.392157%,32.941176%);fill-opacity:1;stroke-width:0.75;stroke-linecap:round;stroke-linejoin:round;stroke:rgb(26.666667%,0.392157%,32.941176%);stroke-opacity:1;stroke-miterlimit:10;" d="M 12.601562 70.199219 L 36.542969 70.199219 L 36.542969 1.800781 L 12.601562 1.800781 Z M 12.601562 70.199219 "/>
<path style="fill-rule:nonzero;fill:rgb(28.235294%,8.235294%,40.784314%);fill-opacity:1;stroke-width:0.75;stroke-linecap:round;stroke-linejoin:round;stroke:rgb(28.235294%,8.235294%,40.784314%);stroke-opacity:1;stroke-miterlimit:10;" d="M 36.539062 70.199219 L 60.480469 70.199219 L 60.480469 1.800781 L 36.539062 1.800781 Z M 36.539062 70.199219 "/>
<path style="fill-rule:nonzero;fill:rgb(28.235294%,14.901961%,46.666667%);fill-opacity:1;stroke-width:0.75;stroke-linecap:round;stroke-linejoin:round;stroke:rgb(28.235294%,14.901961%,46.666667%);stroke-opacity:1;stroke-miterlimit:10;" d="M 60.480469 70.199219 L 84.421875 70.199219 L 84.421875 1.800781 L 60.480469 1.800781 Z M 60.480469 70.199219 "/>
<path style="fill-rule:nonzero;fill:rgb(27.058824%,21.568627%,50.588235%);fill-opacity:1;stroke-width:0.75;stroke-linecap:round;stroke-linejoin:round;stroke:rgb(27.058824%,21.568627%,50.588235%);stroke-opacity:1;stroke-miterlimit:10;" d="M 84.421875 70.199219 L 108.363281 70.199219 L 108.363281 1.800781 L 84.421875 1.800781 Z M 84.421875 70.199219 "/>
<path style="fill-rule:nonzero;fill:rgb(24.705882%,27.843137%,53.333333%);fill-opacity:1;stroke-width:0.75;stroke-linecap:round;stroke-linejoin:round;stroke:rgb(24.705882%,27.843137%,53.333333%);stroke-opacity:1;stroke-miterlimit:10;" d="M 108.359375 70.199219 L 132.300781 70.199219 L 132.300781 1.800781 L 108.359375 1.800781 Z M 108.359375 70.199219 "/>
<path style="fill-rule:nonzero;fill:rgb(22.352941%,33.333333%,54.901961%);fill-opacity:1;stroke-width:0.75;stroke-linecap:round;stroke-linejoin:round;stroke:rgb(22.352941%,33.333333%,54.901961%);stroke-opacity:1;stroke-miterlimit:10;" d="M 132.300781 70.199219 L 156.242188 70.199219 L 156.242188 1.800781 L 132.300781 1.800781 Z M 132.300781 70.199219 "/>
<path style="fill-rule:nonzero;fill:rgb(19.607843%,39.215686%,55.686275%);fill-opacity:1;stroke-width:0.75;stroke-linecap:round;stroke-linejoin:round;stroke:rgb(19.607843%,39.215686%,55.686275%);stroke-opacity:1;stroke-miterlimit:10;" d="M 156.238281 70.199219 L 180.179688 70.199219 L 180.179688 1.800781 L 156.238281 1.800781 Z M 156.238281 70.199219 "/>
<path style="fill-rule:nonzero;fill:rgb(17.647059%,44.313725%,55.686275%);fill-opacity:1;stroke-width:0.75;stroke-linecap:round;stroke-linejoin:round;stroke:rgb(17.647059%,44.313725%,55.686275%);stroke-opacity:1;stroke-miterlimit:10;" d="M 180.179688 70.199219 L 204.121094 70.199219 L 204.121094 1.800781 L 180.179688 1.800781 Z M 180.179688 70.199219 "/>
<path style="fill-rule:nonzero;fill:rgb(15.686275%,49.019608%,55.686275%);fill-opacity:1;stroke-width:0.75;stroke-linecap:round;stroke-linejoin:round;stroke:rgb(15.686275%,49.019608%,55.686275%);stroke-opacity:1;stroke-miterlimit:10;" d="M 204.121094 70.199219 L 228.0625 70.199219 L 228.0625 1.800781 L 204.121094 1.800781 Z M 204.121094 70.199219 "/>
<path style="fill-rule:nonzero;fill:rgb(13.72549%,54.117647%,55.294118%);fill-opacity:1;stroke-width:0.75;stroke-linecap:round;stroke-linejoin:round;stroke:rgb(13.72549%,54.117647%,55.294118%);stroke-opacity:1;stroke-miterlimit:10;" d="M 228.058594 70.199219 L 252 70.199219 L 252 1.800781 L 228.058594 1.800781 Z M 228.058594 70.199219 "/>
<path style="fill-rule:nonzero;fill:rgb(12.156863%,58.823529%,54.509804%);fill-opacity:1;stroke-width:0.75;stroke-linecap:round;stroke-linejoin:round;stroke:rgb(12.156863%,58.823529%,54.509804%);stroke-opacity:1;stroke-miterlimit:10;" d="M 252 70.199219 L 275.941406 70.199219 L 275.941406 1.800781 L 252 1.800781 Z M 252 70.199219 "/>
<path style="fill-rule:nonzero;fill:rgb(12.54902%,63.921569%,52.54902%);fill-opacity:1;stroke-width:0.75;stroke-linecap:round;stroke-linejoin:round;stroke:rgb(12.54902%,63.921569%,52.54902%);stroke-opacity:1;stroke-miterlimit:10;" d="M 275.941406 70.199219 L 299.882812 70.199219 L 299.882812 1.800781 L 275.941406 1.800781 Z M 275.941406 70.199219 "/>
<path style="fill-rule:nonzero;fill:rgb(16.078431%,68.627451%,49.803922%);fill-opacity:1;stroke-width:0.75;stroke-linecap:round;stroke-linejoin:round;stroke:rgb(16.078431%,68.627451%,49.803922%);stroke-opacity:1;stroke-miterlimit:10;" d="M 299.878906 70.199219 L 323.820312 70.199219 L 323.820312 1.800781 L 299.878906 1.800781 Z M 299.878906 70.199219 "/>
<path style="fill-rule:nonzero;fill:rgb(23.529412%,73.72549%,45.882353%);fill-opacity:1;stroke-width:0.75;stroke-linecap:round;stroke-linejoin:round;stroke:rgb(23.529412%,73.72549%,45.882353%);stroke-opacity:1;stroke-miterlimit:10;" d="M 323.820312 70.199219 L 347.761719 70.199219 L 347.761719 1.800781 L 323.820312 1.800781 Z M 323.820312 70.199219 "/>
<path style="fill-rule:nonzero;fill:rgb(33.72549%,77.647059%,40.392157%);fill-opacity:1;stroke-width:0.75;stroke-linecap:round;stroke-linejoin:round;stroke:rgb(33.72549%,77.647059%,40.392157%);stroke-opacity:1;stroke-miterlimit:10;" d="M 347.761719 70.199219 L 371.703125 70.199219 L 371.703125 1.800781 L 347.761719 1.800781 Z M 347.761719 70.199219 "/>
<path style="fill-rule:nonzero;fill:rgb(45.490196%,81.568627%,33.333333%);fill-opacity:1;stroke-width:0.75;stroke-linecap:round;stroke-linejoin:round;stroke:rgb(45.490196%,81.568627%,33.333333%);stroke-opacity:1;stroke-miterlimit:10;" d="M 371.699219 70.199219 L 395.640625 70.199219 L 395.640625 1.800781 L 371.699219 1.800781 Z M 371.699219 70.199219 "/>
<path style="fill-rule:nonzero;fill:rgb(58.039216%,84.705882%,25.098039%);fill-opacity:1;stroke-width:0.75;stroke-linecap:round;stroke-linejoin:round;stroke:rgb(58.039216%,84.705882%,25.098039%);stroke-opacity:1;stroke-miterlimit:10;" d="M 395.640625 70.199219 L 419.582031 70.199219 L 419.582031 1.800781 L 395.640625 1.800781 Z M 395.640625 70.199219 "/>
<path style="fill-rule:nonzero;fill:rgb(72.156863%,87.058824%,16.078431%);fill-opacity:1;stroke-width:0.75;stroke-linecap:round;stroke-linejoin:round;stroke:rgb(72.156863%,87.058824%,16.078431%);stroke-opacity:1;stroke-miterlimit:10;" d="M 419.578125 70.199219 L 443.519531 70.199219 L 443.519531 1.800781 L 419.578125 1.800781 Z M 419.578125 70.199219 "/>
<path style="fill-rule:nonzero;fill:rgb(86.27451%,89.019608%,9.411765%);fill-opacity:1;stroke-width:0.75;stroke-linecap:round;stroke-linejoin:round;stroke:rgb(86.27451%,89.019608%,9.411765%);stroke-opacity:1;stroke-miterlimit:10;" d="M 443.519531 70.199219 L 467.460938 70.199219 L 467.460938 1.800781 L 443.519531 1.800781 Z M 443.519531 70.199219 "/>
<path style="fill-rule:nonzero;fill:rgb(99.215686%,90.588235%,14.509804%);fill-opacity:1;stroke-width:0.75;stroke-linecap:round;stroke-linejoin:round;stroke:rgb(99.215686%,90.588235%,14.509804%);stroke-opacity:1;stroke-miterlimit:10;" d="M 467.460938 70.199219 L 491.402344 70.199219 L 491.402344 1.800781 L 467.460938 1.800781 Z M 467.460938 70.199219 "/>
</g>
</svg>
