<?xml version="1.0" encoding="UTF-8"?>
<svg xmlns="http://www.w3.org/2000/svg" xmlns:xlink="http://www.w3.org/1999/xlink" width="504pt" height="72pt" viewBox="0 0 504 72" version="1.1">
<g id="surface4">
<rect x="0" y="0" width="504" height="72" style="fill:rgb(100%,100%,100%);fill-opacity:1;stroke:none;"/>
<path style="fill-rule:nonzero;fill:rgb(0%,0%,1.568627%);fill-opacity:1;stroke-width:0.75;stroke-linecap:round;stroke-linejoin:round;stroke:rgb(0%,0%,1.568627%);stroke-opacity:1;stroke-miterlimit:10;" d="M 12.601562 70.199219 L 36.542969 70.199219 L 36.542969 1.800781 L 12.601562 1.800781 Z M 12.601562 70.199219 "/>
<path style="fill-rule:nonzero;fill:rgb(2.745098%,2.745098%,11.372549%);fill-opacity:1;stroke-width:0.75;stroke-linecap:round;stroke-linejoin:round;stroke:rgb(2.745098%,2.745098%,11.372549%);stroke-opacity:1;stroke-miterlimit:10;" d="M 36.539062 70.199219 L 60.480469 70.199219 L 60.480469 1.800781 L 36.539062 1.800781 Z M 36.539062 70.199219 "/>
<path style="fill-rule:nonzero;fill:rgb(8.627451%,5.882353%,23.137255%);fill-opacity:1;stroke-width:0.75;stroke-linecap:round;stroke-linejoin:round;stroke:rgb(8.627451%,5.882353%,23.137255%);stroke-opacity:1;stroke-miterlimit:10;" d="M 60.480469 70.199219 L 84.421875 70.199219 L 84.421875 1.800781 L 60.480469 1.800781 Z M 60.480469 70.199219 "/>
<path style="fill-rule:nonzero;fill:rgb(16.078431%,6.666667%,35.294118%);fill-opacity:1;stroke-width:0.75;stroke-linecap:round;stroke-linejoin:round;stroke:rgb(16.078431%,6.666667%,35.294118%);stroke-opacity:1;stroke-miterlimit:10;" d="M 84.421875 70.199219 L 108.363281 70.199219 L 108.363281 1.800781 L 84.421875 1.800781 Z M 84.421875 70.199219 "/>
<path style="fill-rule:nonzero;fill:rgb(25.098039%,5.882353%,45.098039%);fill-opacity:1;stroke-width:0.75;stroke-linecap:round;stroke-linejoin:round;stroke:rgb(25.098039%,5.882353%,45.098039%);stroke-opacity:1;stroke-miterlimit:10;" d="M 108.359375 70.199219 L 132.300781 70.199219 L 132.300781 1.800781 L 108.359375 1.800781 Z M 108.359375 70.199219 "/>
<path style="fill-rule:nonzero;fill:rgb(33.72549%,7.843137%,49.019608%);fill-opacity:1;stroke-width:0.75;stroke-linecap:round;stroke-linejoin:round;stroke:rgb(33.72549%,7.843137%,49.019608%);stroke-opacity:1;stroke-miterlimit:10;" d="M 132.300781 70.199219 L 156.242188 70.199219 L 156.242188 1.800781 L 132.300781 1.800781 Z M 132.300781 70.199219 "/>
<path style="fill-rule:nonzero;fill:rgb(41.960784%,11.372549%,50.588235%);fill-opacity:1;stroke-width:0.75;stroke-linecap:round;stroke-linejoin:round;stroke:rgb(41.960784%,11.372549%,50.588235%);stroke-opacity:1;stroke-miterlimit:10;" d="M 156.238281 70.199219 L 180.179688 70.199219 L 180.179688 1.800781 L 156.238281 1.800781 Z M 156.238281 70.199219 "/>
<path style="fill-rule:nonzero;fill:rgb(50.196078%,14.509804%,50.980392%);fill-opacity:1;stroke-width:0.75;stroke-linecap:round;stroke-linejoin:round;stroke:rgb(50.196078%,14.509804%,50.980392%);stroke-opacity:1;stroke-miterlimit:10;" d="M 180.179688 70.199219 L 204.121094 70.199219 L 204.121094 1.800781 L 180.179688 1.800781 Z M 180.179688 70.199219 "/>
<path style="fill-rule:nonzero;fill:rgb(58.431373%,17.254902%,50.196078%);fill-opacity:1;stroke-width:0.75;stroke-linecap:round;stroke-linejoin:round;stroke:rgb(58.431373%,17.254902%,50.196078%);stroke-opacity:1;stroke-miterlimit:10;" d="M 204.121094 70.199219 L 228.0625 70.199219 L 228.0625 1.800781 L 204.121094 1.800781 Z M 204.121094 70.199219 "/>
<path style="fill-rule:nonzero;fill:rgb(67.058824%,20%,48.627451%);fill-opacity:1;stroke-width:0.75;stroke-linecap:round;stroke-linejoin:round;stroke:rgb(67.058824%,20%,48.627451%);stroke-opacity:1;stroke-miterlimit:10;" d="M 228.058594 70.199219 L 252 70.199219 L 252 1.800781 L 228.058594 1.800781 Z M 228.058594 70.199219 "/>
<path style="fill-rule:nonzero;fill:rgb(75.294118%,22.745098%,46.27451%);fill-opacity:1;stroke-width:0.75;stroke-linecap:round;stroke-linejoin:round;stroke:rgb(75.294118%,22.745098%,46.27451%);stroke-opacity:1;stroke-miterlimit:10;" d="M 252 70.199219 L 275.941406 70.199219 L 275.941406 1.800781 L 252 1.800781 Z M 252 70.199219 "/>
<path style="fill-rule:nonzero;fill:rgb(83.921569%,27.058824%,42.352941%);fill-opacity:1;stroke-width:0.75;stroke-linecap:round;stroke-linejoin:round;stroke:rgb(83.921569%,27.058824%,42.352941%);stroke-opacity:1;stroke-miterlimit:10;" d="M 275.941406 70.199219 L 299.882812 70.199219 L 299.882812 1.800781 L 275.941406 1.800781 Z M 275.941406 70.199219 "/>
<path style="fill-rule:nonzero;fill:rgb(90.980392%,32.54902%,38.431373%);fill-opacity:1;stroke-width:0.75;stroke-linecap:round;stroke-linejoin:round;stroke:rgb(90.980392%,32.54902%,38.431373%);stroke-opacity:1;stroke-miterlimit:10;" d="M 299.878906 70.199219 L 323.820312 70.199219 L 323.820312 1.800781 L 299.878906 1.800781 Z M 299.878906 70.199219 "/>
<path style="fill-rule:nonzero;fill:rgb(95.686275%,40.784314%,36.078431%);fill-opacity:1;stroke-width:0.75;stroke-linecap:round;stroke-linejoin:round;stroke:rgb(95.686275%,40.784314%,36.078431%);stroke-opacity:1;stroke-miterlimit:10;" d="M 323.820312 70.199219 L 347.761719 70.199219 L 347.761719 1.800781 L 323.820312 1.800781 Z M 323.820312 70.199219 "/>
<path style="fill-rule:nonzero;fill:rgb(98.039216%,50.588235%,37.254902%);fill-opacity:1;stroke-width:0.75;stroke-linecap:round;stroke-linejoin:round;stroke:rgb(98.039216%,50.588235%,37.254902%);stroke-opacity:1;stroke-miterlimit:10;" d="M 347.761719 70.199219 L 371.703125 70.199219 L 371.703125 1.800781 L 347.761719 1.800781 Z M 347.761719 70.199219 "/>
<path style="fill-rule:nonzero;fill:rgb(99.215686%,60.392157%,41.568627%);fill-opacity:1;stroke-width:0.75;stroke-linecap:round;stroke-linejoin:round;stroke:rgb(99.215686%,60.392157%,41.568627%);stroke-opacity:1;stroke-miterlimit:10;" d="M 371.699219 70.199219 L 395.640625 70.199219 L 395.640625 1.800781 L 371.699219 1.800781 Z M 371.699219 70.199219 "/>
<path style="fill-rule:nonzero;fill:rgb(99.607843%,70.196078%,48.235294%);fill-opacity:1;stroke-width:0.75;stroke-linecap:round;stroke-linejoin:round;stroke:rgb(99.607843%,70.196078%,48.235294%);stroke-opacity:1;stroke-miterlimit:10;" d="M 395.640625 70.199219 L 419.582031 70.199219 L 419.582031 1.800781 L 395.640625 1.800781 Z M 395.640625 70.199219 "/>
<path style="fill-rule:nonzero;fill:rgb(99.607843%,80%,56.078431%);fill-opacity:1;stroke-width:0.75;stroke-linecap:round;stroke-linejoin:round;stroke:rgb(99.607843%,80%,56.078431%);stroke-opacity:1;stroke-miterlimit:10;" d="M 419.578125 70.199219 L 443.519531 70.199219 L 443.519531 1.800781 L 419.578125 1.800781 Z M 419.578125 70.199219 "/>
<path style="fill-rule:nonzero;fill:rgb(99.215686%,89.411765%,65.098039%);fill-opacity:1;stroke-width:0.75;stroke-linecap:round;stroke-linejoin:round;stroke:rgb(99.215686%,89.411765%,65.098039%);stroke-opacity:1;stroke-miterlimit:10;" d="M 443.519531 70.199219 L 467.460938 70.199219 L 467.460938 1.800781 L 443.519531 1.800781 Z M 443.519531 70.199219 "/>
<path style="fill-rule:nonzero;fill:rgb(98.823529%,99.215686%,74.901961%);fill-opacity:1;stroke-width:0.75;stroke-linecap:round;stroke-linejoin:round;stroke:rgb(98.823529%,99.215686%,74.901961%);stroke-opacity:1;stroke-miterlimit:10;" d="M 467.460938 70.199219 L 491.402344 70.199219 L 491.402344 1.800781 L 467.460938 1.800781 Z M 467.460938 70.199219 "/>
</g>
</svg>
