<?xml version="1.0" encoding="UTF-8"?>
<svg xmlns="http://www.w3.org/2000/svg" xmlns:xlink="http://www.w3.org/1999/xlink" width="504pt" height="72pt" viewBox="0 0 504 72" version="1.1">
<g id="surface34">
<rect x="0" y="0" width="504" height="72" style="fill:rgb(100%,100%,100%);fill-opacity:1;stroke:none;"/>
<path style="fill-rule:nonzero;fill:rgb(1.176471%,1.960784%,10.196078%);fill-opacity:1;stroke-width:0.75;stroke-linecap:round;stroke-linejoin:round;stroke:rgb(1.176471%,1.960784%,10.196078%);stroke-opacity:1;stroke-miterlimit:10;" d="M 12.601562 70.199219 L 60.480469 70.199219 L 60.480469 1.800781 L 12.601562 1.800781 Z M 12.601562 70.199219 "/>
<path style="fill-rule:nonzero;fill:rgb(16.470588%,8.627451%,21.176471%);fill-opacity:1;stroke-width:0.75;stroke-linecap:round;stroke-linejoin:round;stroke:rgb(16.470588%,8.627451%,21.176471%);stroke-opacity:1;stroke-miterlimit:10;" d="M 60.480469 70.199219 L 108.359375 70.199219 L 108.359375 1.800781 L 60.480469 1.800781 Z M 60.480469 70.199219 "/>
<path style="fill-rule:nonzero;fill:rgb(33.333333%,11.764706%,30.980392%);fill-opacity:1;stroke-width:0.75;stroke-linecap:round;stroke-linejoin:round;stroke:rgb(33.333333%,11.764706%,30.980392%);stroke-opacity:1;stroke-miterlimit:10;" d="M 108.359375 70.199219 L 156.238281 70.199219 L 156.238281 1.800781 L 108.359375 1.800781 Z M 108.359375 70.199219 "/>
<path style="fill-rule:nonzero;fill:rgb(51.764706%,11.764706%,35.294118%);fill-opacity:1;stroke-width:0.75;stroke-linecap:round;stroke-linejoin:round;stroke:rgb(51.764706%,11.764706%,35.294118%);stroke-opacity:1;stroke-miterlimit:10;" d="M 156.238281 70.199219 L 204.117188 70.199219 L 204.117188 1.800781 L 156.238281 1.800781 Z M 156.238281 70.199219 "/>
<path style="fill-rule:nonzero;fill:rgb(70.588235%,8.627451%,34.509804%);fill-opacity:1;stroke-width:0.75;stroke-linecap:round;stroke-linejoin:round;stroke:rgb(70.588235%,8.627451%,34.509804%);stroke-opacity:1;stroke-miterlimit:10;" d="M 204.121094 70.199219 L 252 70.199219 L 252 1.800781 L 204.121094 1.800781 Z M 204.121094 70.199219 "/>
<path style="fill-rule:nonzero;fill:rgb(86.666667%,17.254902%,27.058824%);fill-opacity:1;stroke-width:0.75;stroke-linecap:round;stroke-linejoin:round;stroke:rgb(86.666667%,17.254902%,27.058824%);stroke-opacity:1;stroke-miterlimit:10;" d="M 252 70.199219 L 299.878906 70.199219 L 299.878906 1.800781 L 252 1.800781 Z M 252 70.199219 "/>
<path style="fill-rule:nonzero;fill:rgb(94.117647%,37.647059%,26.27451%);fill-opacity:1;stroke-width:0.75;stroke-linecap:round;stroke-linejoin:round;stroke:rgb(94.117647%,37.647059%,26.27451%);stroke-opacity:1;stroke-miterlimit:10;" d="M 299.878906 70.199219 L 347.757812 70.199219 L 347.757812 1.800781 L 299.878906 1.800781 Z M 299.878906 70.199219 "/>
<path style="fill-rule:nonzero;fill:rgb(96.078431%,57.647059%,41.568627%);fill-opacity:1;stroke-width:0.75;stroke-linecap:round;stroke-linejoin:round;stroke:rgb(96.078431%,57.647059%,41.568627%);stroke-opacity:1;stroke-miterlimit:10;" d="M 347.761719 70.199219 L 395.640625 70.199219 L 395.640625 1.800781 L 347.761719 1.800781 Z M 347.761719 70.199219 "/>
<path style="fill-rule:nonzero;fill:rgb(96.470588%,75.294118%,61.960784%);fill-opacity:1;stroke-width:0.75;stroke-linecap:round;stroke-linejoin:round;stroke:rgb(96.470588%,75.294118%,61.960784%);stroke-opacity:1;stroke-miterlimit:10;" d="M 395.640625 70.199219 L 443.519531 70.199219 L 443.519531 1.800781 L 395.640625 1.800781 Z M 395.640625 70.199219 "/>
<path style="fill-rule:nonzero;fill:rgb(98.039216%,92.156863%,86.666667%);fill-opacity:1;stroke-width:0.75;stroke-linecap:round;stroke-linejoin:round;stroke:rgb(98.039216%,92.156863%,86.666667%);stroke-opacity:1;stroke-miterlimit:10;" d="M 443.519531 70.199219 L 491.398438 70.199219 L 491.398438 1.800781 L 443.519531 1.800781 Z M 443.519531 70.199219 "/>
</g>
</svg>
