<?xml version="1.0" encoding="UTF-8"?>
<svg xmlns="http://www.w3.org/2000/svg" xmlns:xlink="http://www.w3.org/1999/xlink" width="504pt" height="72pt" viewBox="0 0 504 72" version="1.1">
<g id="surface28">
<rect x="0" y="0" width="504" height="72" style="fill:rgb(100%,100%,100%);fill-opacity:1;stroke:none;"/>
<path style="fill-rule:nonzero;fill:rgb(0%,12.54902%,30.196078%);fill-opacity:1;stroke-width:0.75;stroke-linecap:round;stroke-linejoin:round;stroke:rgb(0%,12.54902%,30.196078%);stroke-opacity:1;stroke-miterlimit:10;" d="M 12.601562 70.199219 L 36.542969 70.199219 L 36.542969 1.800781 L 12.601562 1.800781 Z M 12.601562 70.199219 "/>
<path style="fill-rule:nonzero;fill:rgb(0%,16.470588%,39.215686%);fill-opacity:1;stroke-width:0.75;stroke-linecap:round;stroke-linejoin:round;stroke:rgb(0%,16.470588%,39.215686%);stroke-opacity:1;stroke-miterlimit:10;" d="M 36.539062 70.199219 L 60.480469 70.199219 L 60.480469 1.800781 L 36.539062 1.800781 Z M 36.539062 70.199219 "/>
<path style="fill-rule:nonzero;fill:rgb(0%,20%,43.529412%);fill-opacity:1;stroke-width:0.75;stroke-linecap:round;stroke-linejoin:round;stroke:rgb(0%,20%,43.529412%);stroke-opacity:1;stroke-miterlimit:10;" d="M 60.480469 70.199219 L 84.421875 70.199219 L 84.421875 1.800781 L 60.480469 1.800781 Z M 60.480469 70.199219 "/>
<path style="fill-rule:nonzero;fill:rgb(12.156863%,23.529412%,42.745098%);fill-opacity:1;stroke-width:0.75;stroke-linecap:round;stroke-linejoin:round;stroke:rgb(12.156863%,23.529412%,42.745098%);stroke-opacity:1;stroke-miterlimit:10;" d="M 84.421875 70.199219 L 108.363281 70.199219 L 108.363281 1.800781 L 84.421875 1.800781 Z M 84.421875 70.199219 "/>
<path style="fill-rule:nonzero;fill:rgb(20.784314%,27.45098%,41.960784%);fill-opacity:1;stroke-width:0.75;stroke-linecap:round;stroke-linejoin:round;stroke:rgb(20.784314%,27.45098%,41.960784%);stroke-opacity:1;stroke-miterlimit:10;" d="M 108.359375 70.199219 L 132.300781 70.199219 L 132.300781 1.800781 L 108.359375 1.800781 Z M 108.359375 70.199219 "/>
<path style="fill-rule:nonzero;fill:rgb(26.666667%,30.980392%,41.960784%);fill-opacity:1;stroke-width:0.75;stroke-linecap:round;stroke-linejoin:round;stroke:rgb(26.666667%,30.980392%,41.960784%);stroke-opacity:1;stroke-miterlimit:10;" d="M 132.300781 70.199219 L 156.242188 70.199219 L 156.242188 1.800781 L 132.300781 1.800781 Z M 132.300781 70.199219 "/>
<path style="fill-rule:nonzero;fill:rgb(32.54902%,34.901961%,42.352941%);fill-opacity:1;stroke-width:0.75;stroke-linecap:round;stroke-linejoin:round;stroke:rgb(32.54902%,34.901961%,42.352941%);stroke-opacity:1;stroke-miterlimit:10;" d="M 156.238281 70.199219 L 180.179688 70.199219 L 180.179688 1.800781 L 156.238281 1.800781 Z M 156.238281 70.199219 "/>
<path style="fill-rule:nonzero;fill:rgb(37.254902%,38.823529%,43.137255%);fill-opacity:1;stroke-width:0.75;stroke-linecap:round;stroke-linejoin:round;stroke:rgb(37.254902%,38.823529%,43.137255%);stroke-opacity:1;stroke-miterlimit:10;" d="M 180.179688 70.199219 L 204.121094 70.199219 L 204.121094 1.800781 L 180.179688 1.800781 Z M 180.179688 70.199219 "/>
<path style="fill-rule:nonzero;fill:rgb(41.960784%,42.352941%,44.313725%);fill-opacity:1;stroke-width:0.75;stroke-linecap:round;stroke-linejoin:round;stroke:rgb(41.960784%,42.352941%,44.313725%);stroke-opacity:1;stroke-miterlimit:10;" d="M 204.121094 70.199219 L 228.0625 70.199219 L 228.0625 1.800781 L 204.121094 1.800781 Z M 204.121094 70.199219 "/>
<path style="fill-rule:nonzero;fill:rgb(46.666667%,46.666667%,46.27451%);fill-opacity:1;stroke-width:0.75;stroke-linecap:round;stroke-linejoin:round;stroke:rgb(46.666667%,46.666667%,46.27451%);stroke-opacity:1;stroke-miterlimit:10;" d="M 228.058594 70.199219 L 252 70.199219 L 252 1.800781 L 228.058594 1.800781 Z M 228.058594 70.199219 "/>
<path style="fill-rule:nonzero;fill:rgb(51.372549%,50.196078%,47.45098%);fill-opacity:1;stroke-width:0.75;stroke-linecap:round;stroke-linejoin:round;stroke:rgb(51.372549%,50.196078%,47.45098%);stroke-opacity:1;stroke-miterlimit:10;" d="M 252 70.199219 L 275.941406 70.199219 L 275.941406 1.800781 L 252 1.800781 Z M 252 70.199219 "/>
<path style="fill-rule:nonzero;fill:rgb(56.470588%,54.509804%,47.45098%);fill-opacity:1;stroke-width:0.75;stroke-linecap:round;stroke-linejoin:round;stroke:rgb(56.470588%,54.509804%,47.45098%);stroke-opacity:1;stroke-miterlimit:10;" d="M 275.941406 70.199219 L 299.882812 70.199219 L 299.882812 1.800781 L 275.941406 1.800781 Z M 275.941406 70.199219 "/>
<path style="fill-rule:nonzero;fill:rgb(61.568627%,58.823529%,46.666667%);fill-opacity:1;stroke-width:0.75;stroke-linecap:round;stroke-linejoin:round;stroke:rgb(61.568627%,58.823529%,46.666667%);stroke-opacity:1;stroke-miterlimit:10;" d="M 299.878906 70.199219 L 323.820312 70.199219 L 323.820312 1.800781 L 299.878906 1.800781 Z M 299.878906 70.199219 "/>
<path style="fill-rule:nonzero;fill:rgb(67.058824%,62.745098%,45.490196%);fill-opacity:1;stroke-width:0.75;stroke-linecap:round;stroke-linejoin:round;stroke:rgb(67.058824%,62.745098%,45.490196%);stroke-opacity:1;stroke-miterlimit:10;" d="M 323.820312 70.199219 L 347.761719 70.199219 L 347.761719 1.800781 L 323.820312 1.800781 Z M 323.820312 70.199219 "/>
<path style="fill-rule:nonzero;fill:rgb(72.54902%,67.45098%,43.921569%);fill-opacity:1;stroke-width:0.75;stroke-linecap:round;stroke-linejoin:round;stroke:rgb(72.54902%,67.45098%,43.921569%);stroke-opacity:1;stroke-miterlimit:10;" d="M 347.761719 70.199219 L 371.703125 70.199219 L 371.703125 1.800781 L 347.761719 1.800781 Z M 347.761719 70.199219 "/>
<path style="fill-rule:nonzero;fill:rgb(78.039216%,71.764706%,41.960784%);fill-opacity:1;stroke-width:0.75;stroke-linecap:round;stroke-linejoin:round;stroke:rgb(78.039216%,71.764706%,41.960784%);stroke-opacity:1;stroke-miterlimit:10;" d="M 371.699219 70.199219 L 395.640625 70.199219 L 395.640625 1.800781 L 371.699219 1.800781 Z M 371.699219 70.199219 "/>
<path style="fill-rule:nonzero;fill:rgb(84.313725%,76.862745%,38.823529%);fill-opacity:1;stroke-width:0.75;stroke-linecap:round;stroke-linejoin:round;stroke:rgb(84.313725%,76.862745%,38.823529%);stroke-opacity:1;stroke-miterlimit:10;" d="M 395.640625 70.199219 L 419.582031 70.199219 L 419.582031 1.800781 L 395.640625 1.800781 Z M 395.640625 70.199219 "/>
<path style="fill-rule:nonzero;fill:rgb(89.803922%,81.568627%,35.294118%);fill-opacity:1;stroke-width:0.75;stroke-linecap:round;stroke-linejoin:round;stroke:rgb(89.803922%,81.568627%,35.294118%);stroke-opacity:1;stroke-miterlimit:10;" d="M 419.578125 70.199219 L 443.519531 70.199219 L 443.519531 1.800781 L 419.578125 1.800781 Z M 419.578125 70.199219 "/>
<path style="fill-rule:nonzero;fill:rgb(96.078431%,86.666667%,30.196078%);fill-opacity:1;stroke-width:0.75;stroke-linecap:round;stroke-linejoin:round;stroke:rgb(96.078431%,86.666667%,30.196078%);stroke-opacity:1;stroke-miterlimit:10;" d="M 443.519531 70.199219 L 467.460938 70.199219 L 467.460938 1.800781 L 443.519531 1.800781 Z M 443.519531 70.199219 "/>
<path style="fill-rule:nonzero;fill:rgb(100%,91.764706%,27.45098%);fill-opacity:1;stroke-width:0.75;stroke-linecap:round;stroke-linejoin:round;stroke:rgb(100%,91.764706%,27.45098%);stroke-opacity:1;stroke-miterlimit:10;" d="M 467.460938 70.199219 L 491.402344 70.199219 L 491.402344 1.800781 L 467.460938 1.800781 Z M 467.460938 70.199219 "/>
</g>
</svg>
