<?xml version="1.0" encoding="UTF-8"?>
<svg xmlns="http://www.w3.org/2000/svg" xmlns:xlink="http://www.w3.org/1999/xlink" width="504pt" height="72pt" viewBox="0 0 504 72" version="1.1">
<g id="surface46">
<rect x="0" y="0" width="504" height="72" style="fill:rgb(100%,100%,100%);fill-opacity:1;stroke:none;"/>
<path style="fill-rule:nonzero;fill:rgb(18.823529%,7.058824%,23.137255%);fill-opacity:1;stroke-width:0.75;stroke-linecap:round;stroke-linejoin:round;stroke:rgb(18.823529%,7.058824%,23.137255%);stroke-opacity:1;stroke-miterlimit:10;" d="M 12.601562 70.199219 L 36.542969 70.199219 L 36.542969 1.800781 L 12.601562 1.800781 Z M 12.601562 70.199219 "/>
<path style="fill-rule:nonzero;fill:rgb(24.705882%,22.352941%,58.039216%);fill-opacity:1;stroke-width:0.75;stroke-linecap:round;stroke-linejoin:round;stroke:rgb(24.705882%,22.352941%,58.039216%);stroke-opacity:1;stroke-miterlimit:10;" d="M 36.539062 70.199219 L 60.480469 70.199219 L 60.480469 1.800781 L 36.539062 1.800781 Z M 36.539062 70.199219 "/>
<path style="fill-rule:nonzero;fill:rgb(27.058824%,36.862745%,82.352941%);fill-opacity:1;stroke-width:0.75;stroke-linecap:round;stroke-linejoin:round;stroke:rgb(27.058824%,36.862745%,82.352941%);stroke-opacity:1;stroke-miterlimit:10;" d="M 60.480469 70.199219 L 84.421875 70.199219 L 84.421875 1.800781 L 60.480469 1.800781 Z M 60.480469 70.199219 "/>
<path style="fill-rule:nonzero;fill:rgb(27.45098%,50.588235%,96.862745%);fill-opacity:1;stroke-width:0.75;stroke-linecap:round;stroke-linejoin:round;stroke:rgb(27.45098%,50.588235%,96.862745%);stroke-opacity:1;stroke-miterlimit:10;" d="M 84.421875 70.199219 L 108.363281 70.199219 L 108.363281 1.800781 L 84.421875 1.800781 Z M 84.421875 70.199219 "/>
<path style="fill-rule:nonzero;fill:rgb(22.745098%,63.529412%,98.823529%);fill-opacity:1;stroke-width:0.75;stroke-linecap:round;stroke-linejoin:round;stroke:rgb(22.745098%,63.529412%,98.823529%);stroke-opacity:1;stroke-miterlimit:10;" d="M 108.359375 70.199219 L 132.300781 70.199219 L 132.300781 1.800781 L 108.359375 1.800781 Z M 108.359375 70.199219 "/>
<path style="fill-rule:nonzero;fill:rgb(13.72549%,76.470588%,89.411765%);fill-opacity:1;stroke-width:0.75;stroke-linecap:round;stroke-linejoin:round;stroke:rgb(13.72549%,76.470588%,89.411765%);stroke-opacity:1;stroke-miterlimit:10;" d="M 132.300781 70.199219 L 156.242188 70.199219 L 156.242188 1.800781 L 132.300781 1.800781 Z M 132.300781 70.199219 "/>
<path style="fill-rule:nonzero;fill:rgb(9.411765%,87.058824%,75.686275%);fill-opacity:1;stroke-width:0.75;stroke-linecap:round;stroke-linejoin:round;stroke:rgb(9.411765%,87.058824%,75.686275%);stroke-opacity:1;stroke-miterlimit:10;" d="M 156.238281 70.199219 L 180.179688 70.199219 L 180.179688 1.800781 L 156.238281 1.800781 Z M 156.238281 70.199219 "/>
<path style="fill-rule:nonzero;fill:rgb(17.254902%,94.117647%,61.960784%);fill-opacity:1;stroke-width:0.75;stroke-linecap:round;stroke-linejoin:round;stroke:rgb(17.254902%,94.117647%,61.960784%);stroke-opacity:1;stroke-miterlimit:10;" d="M 180.179688 70.199219 L 204.121094 70.199219 L 204.121094 1.800781 L 180.179688 1.800781 Z M 180.179688 70.199219 "/>
<path style="fill-rule:nonzero;fill:rgb(35.686275%,98.431373%,44.705882%);fill-opacity:1;stroke-width:0.75;stroke-linecap:round;stroke-linejoin:round;stroke:rgb(35.686275%,98.431373%,44.705882%);stroke-opacity:1;stroke-miterlimit:10;" d="M 204.121094 70.199219 L 228.0625 70.199219 L 228.0625 1.800781 L 204.121094 1.800781 Z M 204.121094 70.199219 "/>
<path style="fill-rule:nonzero;fill:rgb(55.686275%,100%,28.627451%);fill-opacity:1;stroke-width:0.75;stroke-linecap:round;stroke-linejoin:round;stroke:rgb(55.686275%,100%,28.627451%);stroke-opacity:1;stroke-miterlimit:10;" d="M 228.058594 70.199219 L 252 70.199219 L 252 1.800781 L 228.058594 1.800781 Z M 228.058594 70.199219 "/>
<path style="fill-rule:nonzero;fill:rgb(70.980392%,97.254902%,21.176471%);fill-opacity:1;stroke-width:0.75;stroke-linecap:round;stroke-linejoin:round;stroke:rgb(70.980392%,97.254902%,21.176471%);stroke-opacity:1;stroke-miterlimit:10;" d="M 252 70.199219 L 275.941406 70.199219 L 275.941406 1.800781 L 252 1.800781 Z M 252 70.199219 "/>
<path style="fill-rule:nonzero;fill:rgb(83.921569%,90.196078%,20.784314%);fill-opacity:1;stroke-width:0.75;stroke-linecap:round;stroke-linejoin:round;stroke:rgb(83.921569%,90.196078%,20.784314%);stroke-opacity:1;stroke-miterlimit:10;" d="M 275.941406 70.199219 L 299.882812 70.199219 L 299.882812 1.800781 L 275.941406 1.800781 Z M 275.941406 70.199219 "/>
<path style="fill-rule:nonzero;fill:rgb(93.72549%,80.392157%,22.745098%);fill-opacity:1;stroke-width:0.75;stroke-linecap:round;stroke-linejoin:round;stroke:rgb(93.72549%,80.392157%,22.745098%);stroke-opacity:1;stroke-miterlimit:10;" d="M 299.878906 70.199219 L 323.820312 70.199219 L 323.820312 1.800781 L 299.878906 1.800781 Z M 299.878906 70.199219 "/>
<path style="fill-rule:nonzero;fill:rgb(98.823529%,69.019608%,21.176471%);fill-opacity:1;stroke-width:0.75;stroke-linecap:round;stroke-linejoin:round;stroke:rgb(98.823529%,69.019608%,21.176471%);stroke-opacity:1;stroke-miterlimit:10;" d="M 323.820312 70.199219 L 347.761719 70.199219 L 347.761719 1.800781 L 323.820312 1.800781 Z M 323.820312 70.199219 "/>
<path style="fill-rule:nonzero;fill:rgb(99.215686%,54.117647%,14.901961%);fill-opacity:1;stroke-width:0.75;stroke-linecap:round;stroke-linejoin:round;stroke:rgb(99.215686%,54.117647%,14.901961%);stroke-opacity:1;stroke-miterlimit:10;" d="M 347.761719 70.199219 L 371.703125 70.199219 L 371.703125 1.800781 L 347.761719 1.800781 Z M 347.761719 70.199219 "/>
<path style="fill-rule:nonzero;fill:rgb(95.294118%,38.431373%,8.235294%);fill-opacity:1;stroke-width:0.75;stroke-linecap:round;stroke-linejoin:round;stroke:rgb(95.294118%,38.431373%,8.235294%);stroke-opacity:1;stroke-miterlimit:10;" d="M 371.699219 70.199219 L 395.640625 70.199219 L 395.640625 1.800781 L 371.699219 1.800781 Z M 371.699219 70.199219 "/>
<path style="fill-rule:nonzero;fill:rgb(88.235294%,25.882353%,3.529412%);fill-opacity:1;stroke-width:0.75;stroke-linecap:round;stroke-linejoin:round;stroke:rgb(88.235294%,25.882353%,3.529412%);stroke-opacity:1;stroke-miterlimit:10;" d="M 395.640625 70.199219 L 419.582031 70.199219 L 419.582031 1.800781 L 395.640625 1.800781 Z M 395.640625 70.199219 "/>
<path style="fill-rule:nonzero;fill:rgb(78.431373%,15.686275%,1.176471%);fill-opacity:1;stroke-width:0.75;stroke-linecap:round;stroke-linejoin:round;stroke:rgb(78.431373%,15.686275%,1.176471%);stroke-opacity:1;stroke-miterlimit:10;" d="M 419.578125 70.199219 L 443.519531 70.199219 L 443.519531 1.800781 L 419.578125 1.800781 Z M 419.578125 70.199219 "/>
<path style="fill-rule:nonzero;fill:rgb(64.705882%,7.45098%,0.392157%);fill-opacity:1;stroke-width:0.75;stroke-linecap:round;stroke-linejoin:round;stroke:rgb(64.705882%,7.45098%,0.392157%);stroke-opacity:1;stroke-miterlimit:10;" d="M 443.519531 70.199219 L 467.460938 70.199219 L 467.460938 1.800781 L 443.519531 1.800781 Z M 443.519531 70.199219 "/>
<path style="fill-rule:nonzero;fill:rgb(47.843137%,1.568627%,1.176471%);fill-opacity:1;stroke-width:0.75;stroke-linecap:round;stroke-linejoin:round;stroke:rgb(47.843137%,1.568627%,1.176471%);stroke-opacity:1;stroke-miterlimit:10;" d="M 467.460938 70.199219 L 491.402344 70.199219 L 491.402344 1.800781 L 467.460938 1.800781 Z M 467.460938 70.199219 "/>
</g>
</svg>
